<!-- Generated by IcoMoon.io -->
<svg version="1.1" xmlns="http://www.w3.org/2000/svg" width="32" height="32" viewBox="0 0 32 32">
<title>if_like_outline_309057</title>
<path d="M21.867 8c2.667 0 4.8 2.133 4.8 4.8s-5.2 8.533-10.667 13.067c-5.467-4.667-10.667-10.533-10.667-13.067 0-2.667 2.133-4.8 4.8-4.8 3.2 0 5.867 4 5.867 4s2.533-4 5.867-4zM21.867 5.333c-2.4 0-4.533 1.2-5.867 3.067-1.333-1.867-3.467-3.067-5.867-3.067-4.133 0-7.467 3.333-7.467 7.467 0 5.867 13.333 16.533 13.333 16.533s13.333-10.667 13.333-16.533c0-4.133-3.333-7.467-7.467-7.467v0z"></path>
</svg>
